<svg width="12" height="12" viewBox="0 0 12 12" fill="none" xmlns="http://www.w3.org/2000/svg">
<g clip-path="url(#clip0_92_198)">
<path d="M9.97211 3.67535C9.98508 3.66778 9.99584 3.65694 10.0033 3.64392C10.0108 3.6309 10.0147 3.61614 10.0147 3.60112C10.0147 3.5861 10.0108 3.57135 10.0033 3.55832C9.99584 3.5453 9.98508 3.53446 9.97211 3.52689L6.69058 1.62037C6.48062 1.49866 6.24223 1.43457 5.99954 1.43457C5.75685 1.43457 5.51846 1.49866 5.3085 1.62037L2.02762 3.52689C2.01464 3.53446 2.00388 3.5453 1.9964 3.55832C1.98892 3.57135 1.98499 3.5861 1.98499 3.60112C1.98499 3.61614 1.98892 3.6309 1.9964 3.64392C2.00388 3.65694 2.01464 3.66778 2.02762 3.67535L5.95668 5.98664C5.96989 5.99442 5.98495 5.99853 6.00029 5.99853C6.01563 5.99853 6.03069 5.99442 6.04391 5.98664L9.97211 3.67535Z" fill="white"/>
<path d="M1.65979 4.25956C1.64669 4.25199 1.63182 4.24802 1.61668 4.24805C1.60155 4.24807 1.58669 4.25209 1.57361 4.2597C1.56053 4.26731 1.54969 4.27824 1.54219 4.29138C1.53469 4.30452 1.53079 4.31941 1.53089 4.33454V8.07046C1.53121 8.25049 1.57866 8.4273 1.66852 8.58331C1.75837 8.73932 1.88751 8.86908 2.04307 8.9597L5.52698 11.0486C5.54004 11.0562 5.55485 11.0601 5.56993 11.0601C5.585 11.0601 5.59982 11.0562 5.61288 11.0486C5.62594 11.0411 5.63679 11.0303 5.64434 11.0172C5.65189 11.0042 5.65587 10.9894 5.65589 10.9743V6.63981C5.65587 6.62474 5.65189 6.60994 5.64435 6.5969C5.63681 6.58385 5.62597 6.57301 5.61292 6.56548L1.65979 4.25956Z" fill="white"/>
<path d="M6.34338 6.65497V10.9733C6.3434 10.9884 6.34738 11.0032 6.35493 11.0163C6.36248 11.0293 6.37333 11.0402 6.38639 11.0477C6.39945 11.0552 6.41427 11.0592 6.42934 11.0592C6.44442 11.0592 6.45923 11.0552 6.47229 11.0477L9.95598 8.95874C10.1114 8.86824 10.2405 8.73866 10.3304 8.58285C10.4203 8.42705 10.4678 8.25045 10.4684 8.07057V4.33466C10.4683 4.3196 10.4643 4.30482 10.4568 4.2918C10.4492 4.27877 10.4383 4.26797 10.4253 4.26046C10.4122 4.25295 10.3974 4.24901 10.3824 4.24902C10.3673 4.24904 10.3525 4.25301 10.3395 4.26054L6.38635 6.58085C6.37333 6.58837 6.36251 6.59917 6.35497 6.61217C6.34743 6.62518 6.34344 6.63994 6.34338 6.65497Z" fill="white"/>
</g>
<defs>
<clipPath id="clip0_92_198">
<rect width="11" height="11" fill="white" transform="translate(0.499634 0.747559)"/>
</clipPath>
</defs>
</svg>
