<svg width="22" height="23" viewBox="0 0 22 23" fill="none" xmlns="http://www.w3.org/2000/svg">
<path d="M20.8795 0H1.1219C0.502293 0 0 0.502293 0 1.1219V10.5297C0 11.1493 0.502293 11.6516 1.1219 11.6516H5.17558V20.8795C5.17522 21.1769 5.29311 21.4623 5.50329 21.6727C5.71347 21.8831 5.99869 22.0014 6.29611 22.0014H15.7039C16.3235 22.0014 16.8258 21.4991 16.8258 20.8795V11.6557H20.8795C21.1769 11.6557 21.4621 11.5375 21.6723 11.327C21.8825 11.1166 22.0004 10.8312 22 10.5338V1.1219C22.0004 0.824482 21.8825 0.539118 21.6723 0.328681C21.4621 0.118244 21.1769 0 20.8795 0ZM1.30042 1.30179H10.3498V10.3512H1.30042V1.30179ZM15.5254 20.701H6.476V11.6557H15.5254V20.701ZM20.6996 10.3512H11.6502V1.30179H20.6996V10.3512Z" fill="white"/>
<path d="M7.44831 7.32467C7.70457 7.56517 8.10548 7.55881 8.35399 7.3103C8.60249 7.0618 8.60885 6.66089 8.36835 6.40463L6.2907 4.32698C6.03594 4.0746 5.62542 4.0746 5.37066 4.32698L3.28752 6.40463C3.11436 6.56713 3.04345 6.81104 3.10248 7.04105C3.16151 7.27107 3.34112 7.45068 3.57114 7.50971C3.80115 7.56874 4.04506 7.49783 4.20756 7.32467L5.82519 5.70704L7.44831 7.32467Z" fill="white"/>
<path d="M14.5573 7.32467L16.1749 5.70704L17.7925 7.32467C18.0488 7.56517 18.4497 7.55881 18.6982 7.3103C18.9467 7.0618 18.9531 6.66089 18.7126 6.40463L16.6349 4.32698C16.3801 4.0746 15.9696 4.0746 15.7149 4.32698L13.6372 6.40463C13.3967 6.66089 13.4031 7.0618 13.6516 7.3103C13.9001 7.55881 14.301 7.56517 14.5573 7.32467Z" fill="white"/>
<path d="M9.38152 14.6767C9.1249 14.4366 8.72399 14.4435 8.47585 14.6924C8.2277 14.9413 8.22195 15.3422 8.46285 15.5981L10.5405 17.6744C10.6624 17.7966 10.8279 17.8654 11.0005 17.8654C11.1731 17.8654 11.3387 17.7966 11.4605 17.6744L13.5382 15.5981C13.7028 15.4338 13.7672 15.1941 13.7072 14.9694C13.6471 14.7446 13.4718 14.569 13.2471 14.5087C13.0225 14.4483 12.7827 14.5123 12.6181 14.6767L11.0005 16.2957L9.38152 14.6767Z" fill="white"/>
</svg>
