<svg width="12" height="12" viewBox="0 0 12 12" fill="none" xmlns="http://www.w3.org/2000/svg">
<path d="M5.18574 4.33959C5.18574 4.61889 5.18574 4.88959 5.27383 5.14311C4.34785 6.23021 1.90293 9.10267 1.6752 9.32182C1.62993 9.36243 1.59373 9.41211 1.56893 9.46763C1.54413 9.52315 1.53129 9.58327 1.53125 9.64408C1.53125 9.8267 1.64297 10.0029 1.7375 10.1017C1.8793 10.2499 2.48516 10.8107 2.59687 10.7033C2.92773 10.381 2.99434 10.2951 3.12969 10.1619C3.33379 9.96205 3.1082 9.55385 3.1791 9.38842C3.25 9.22299 3.3252 9.19076 3.44766 9.16498C3.57012 9.1392 3.78711 9.22728 3.95684 9.22943C4.13516 9.23158 4.23184 9.15639 4.36504 9.03178C4.47246 8.93295 4.5498 8.84057 4.55195 8.69662C4.55625 8.50326 4.27695 8.2476 4.48535 8.0435C4.69375 7.83939 4.99453 8.1767 5.21582 8.15092C5.43711 8.12514 5.70566 7.81791 5.73359 7.68685C5.76152 7.5558 5.48223 7.21849 5.52519 7.02728C5.54023 6.96283 5.67129 6.81244 5.77012 6.79096C5.86895 6.76947 6.30723 6.9392 6.40605 6.91771C6.52637 6.89193 6.66602 6.76517 6.77988 6.69428C7.11289 6.83822 7.41582 6.89623 7.80469 6.89623C9.27637 6.89623 10.4687 5.74896 10.4687 4.33529C10.4687 2.92162 9.27637 1.7793 7.80469 1.7793C6.33301 1.7793 5.18574 2.92592 5.18574 4.33959ZM9.09375 3.8418C9.09375 3.97777 9.05343 4.11069 8.97788 4.22375C8.90234 4.33681 8.79497 4.42493 8.66934 4.47696C8.54372 4.529 8.40549 4.54261 8.27212 4.51609C8.13876 4.48956 8.01626 4.42408 7.92011 4.32793C7.82397 4.23178 7.75849 4.10928 7.73196 3.97592C7.70543 3.84256 7.71905 3.70433 7.77108 3.5787C7.82312 3.45308 7.91124 3.3457 8.02429 3.27016C8.13735 3.19462 8.27027 3.1543 8.40625 3.1543C8.58859 3.1543 8.76345 3.22673 8.89239 3.35566C9.02132 3.48459 9.09375 3.65946 9.09375 3.8418Z" fill="white"/>
</svg>
