<svg width="11" height="12" viewBox="0 0 11 12" fill="none" xmlns="http://www.w3.org/2000/svg">
<path d="M5.49963 1.77832C3.03559 1.77832 1.03088 3.78303 1.03088 6.24707C1.03088 8.71111 3.03559 10.7158 5.49963 10.7158C7.96368 10.7158 9.96838 8.71111 9.96838 6.24707C9.96838 3.78303 7.96368 1.77832 5.49963 1.77832ZM4.42069 4.28813C4.6929 3.99959 5.07596 3.84082 5.49963 3.84082C5.92331 3.84082 6.30293 4.00066 6.57621 4.2907C6.85315 4.58461 6.98786 4.97949 6.95606 5.40402C6.89247 6.24707 6.23934 6.93457 5.49963 6.93457C4.75993 6.93457 4.10551 6.24707 4.04321 5.40381C4.01163 4.97584 4.14612 4.57967 4.42069 4.28813ZM5.49963 10.0283C4.99485 10.0287 4.49514 9.92762 4.03014 9.73121C3.56513 9.5348 3.1443 9.24702 2.7926 8.88492C2.99403 8.59767 3.25068 8.35343 3.54756 8.16648C4.0952 7.81543 4.78829 7.62207 5.49963 7.62207C6.21098 7.62207 6.90407 7.81543 7.45106 8.16648C7.74819 8.35335 8.00506 8.59759 8.20666 8.88492C7.85499 9.24706 7.43417 9.53487 6.96916 9.73128C6.50415 9.92769 6.00442 10.0287 5.49963 10.0283Z" fill="white"/>
</svg>
